<svg width="20" height="20" viewBox="0 0 20 20" fill="none" xmlns="http://www.w3.org/2000/svg">
<path d="M12.4999 1.66667H4.99992C4.55789 1.66667 4.13397 1.84226 3.82141 2.15482C3.50885 2.46738 3.33325 2.89131 3.33325 3.33333V16.6667C3.33325 17.1087 3.50885 17.5326 3.82141 17.8452C4.13397 18.1577 4.55789 18.3333 4.99992 18.3333H14.9999C15.4419 18.3333 15.8659 18.1577 16.1784 17.8452C16.491 17.5326 16.6666 17.1087 16.6666 16.6667V5.83333L12.4999 1.66667Z" stroke="currentColor" stroke-width="1.66667" stroke-linecap="round" stroke-linejoin="round"/>
<path d="M11.6667 1.66667V5C11.6667 5.44203 11.8423 5.86595 12.1549 6.17851C12.4675 6.49107 12.8914 6.66667 13.3334 6.66667H16.6667" stroke="currentColor" stroke-width="1.66667" stroke-linecap="round" stroke-linejoin="round"/>
<path d="M8.33341 7.5H6.66675" stroke="currentColor" stroke-width="1.66667" stroke-linecap="round" stroke-linejoin="round"/>
<path d="M13.3334 10.8333H6.66675" stroke="currentColor" stroke-width="1.66667" stroke-linecap="round" stroke-linejoin="round"/>
<path d="M13.3334 14.1667H6.66675" stroke="currentColor" stroke-width="1.66667" stroke-linecap="round" stroke-linejoin="round"/>
</svg>
