<svg width="110" height="14" viewBox="0 0 110 14" fill="none" xmlns="http://www.w3.org/2000/svg">
<path d="M3.34049 4.19689L3.34898 8.27724V10.1552C3.34898 10.6639 3.19467 11.4867 3.65618 11.8294C3.83876 11.9528 4.05364 12.0298 4.27909 12.0526C5.41163 12.2135 6.37571 11.5737 7.34546 11.0805C7.64558 10.9287 7.99951 11.148 7.99951 11.4867V12.5406C8.00236 12.5979 7.99286 12.6551 7.97155 12.709C7.95025 12.7629 7.91756 12.8124 7.87535 12.8547C7.83314 12.8971 7.78224 12.9313 7.72556 12.9556C7.66889 12.9798 7.60756 12.9936 7.54507 12.9961C6.57391 12.987 5.58859 12.974 4.61602 12.974C3.97141 12.974 3.33577 12.9827 2.70909 13C2.13432 13 1.07539 12.9909 0.47514 12.9857C0.350576 12.9793 0.233771 12.9282 0.150035 12.8435C0.0662983 12.7587 0.0223754 12.6471 0.0277833 12.5328L0.000885336 1.4533C-0.00331767 1.39089 0.00747991 1.3284 0.0325151 1.27024C0.0575503 1.21209 0.0962122 1.15968 0.145769 1.11673C0.195326 1.07377 0.254568 1.04131 0.31931 1.02166C0.384051 1.002 0.452713 0.995613 0.520442 1.00295C1.45904 1.1561 3.34049 1.76737 3.34049 4.19689Z" fill="#141414"/>
<path d="M19.994 1.53342V2.50339C19.994 2.86374 19.6513 3.11689 19.3237 2.99936L17.9819 2.51889C16.9594 2.15208 15.9698 1.64191 14.8568 1.86019C14.1435 2.00261 13.5016 2.36645 13.0338 2.89345C12.8351 3.12205 12.7501 3.49919 12.6528 3.78721C12.5237 4.17042 12.422 4.56135 12.3485 4.95738C12.2649 5.40039 11.9524 6.34065 12.476 6.59509C12.6931 6.67784 12.9306 6.70155 13.1613 6.66354C13.9385 6.60542 14.791 6.63384 15.5421 6.43752C16.1616 6.27478 16.7963 6.17921 17.4226 6.03713C17.5008 6.02386 17.5811 6.02751 17.6576 6.04781C17.734 6.06811 17.8045 6.10452 17.8638 6.15429C17.9231 6.20407 17.9696 6.2659 17.9998 6.33511C18.03 6.40432 18.0431 6.47909 18.0381 6.55376C18.0381 6.85169 18.0381 7.15004 18.0381 7.44882C18.043 7.52172 18.0305 7.59473 18.0017 7.66252C17.9728 7.73031 17.9282 7.79117 17.8712 7.84067C17.8142 7.89017 17.7462 7.92707 17.6722 7.94865C17.5981 7.97024 17.5199 7.97598 17.4432 7.96545C17.0704 7.89442 16.6839 7.86083 16.3206 7.80142L14.4456 7.49015C14.0166 7.42041 13.5725 7.35196 13.1531 7.46949C13.0793 7.49033 13.0077 7.51757 12.9392 7.55085C12.6842 7.67111 12.4851 7.87573 12.38 8.12561C12.2663 8.41621 12.3595 8.71327 12.4211 9.00775C12.5582 9.63546 12.7049 10.5654 13.1284 11.0523C13.5597 11.5401 14.135 11.8961 14.7814 12.0752C15.9629 12.3994 16.9333 11.9228 18.0175 11.5121L19.3141 11.0187C19.6445 10.8896 19.9995 11.1479 19.9995 11.5108V12.4718C20.0058 12.6048 19.9558 12.7348 19.8604 12.8331C19.7651 12.9315 19.6322 12.9901 19.491 12.9961C18.5836 12.9884 17.668 12.9819 16.7497 12.9819C16.1178 12.9819 15.4859 12.9819 14.8705 13C12.9516 13 9.06716 12.8101 9 6.84049C9 2.6545 11.2451 1 14.8938 1C16.2425 1 17.7722 1.00775 19.4841 1.00904C19.5541 1.01186 19.6229 1.02767 19.6865 1.05556C19.75 1.08346 19.8071 1.12288 19.8545 1.17159C19.9018 1.22029 19.9385 1.27732 19.9625 1.33941C19.9864 1.4015 19.9971 1.46743 19.994 1.53342Z" fill="#141414"/>
<path d="M28.1162 1.03459L33 12.9674H29.914C28.8634 10.4116 28.3684 9.81988 26.5364 9.81988C26.2344 9.81988 25.8982 9.83532 25.5161 9.86233C25.2306 9.89298 24.9641 10.0175 24.7602 10.2156C24.5563 10.4137 24.4269 10.6737 24.3933 10.9531C24.2817 11.6618 24.1779 12.3204 24.0742 12.9674H22.6362C22.111 12.9674 21.5227 13.0407 21 12.9674C21.0302 12.759 21.1983 12.5185 21.2876 12.3243C21.3891 12.103 21.4876 11.8801 21.5831 11.6554C22.7098 9.02625 23.4793 6.24274 24.2449 3.47209L24.4051 2.89069L24.715 1.77034C24.7781 1.54524 24.8056 1.19151 25.0289 1.07703C25.3165 0.92911 25.868 1.03973 26.1806 1.03973L28.1162 1.03459ZM24.7938 9.00953C24.8563 9.10307 24.9486 9.17366 25.0565 9.21019C25.2203 9.26816 25.3957 9.28755 25.5686 9.26678C26.371 9.1999 26.9685 8.76128 27.3598 8.01652C27.6802 7.40554 27.2429 6.46526 27.0171 5.87229C26.7912 5.27931 26.5404 4.65161 26.2777 4.04963C26.09 3.602 25.4767 3.69204 25.4045 4.17826C25.2618 5.13868 25.1191 6.09996 24.9764 7.0621C24.9186 7.45312 24.8604 7.84458 24.8017 8.23647C24.7623 8.52717 24.6783 8.80244 24.7991 9.00438L24.7938 9.00953Z" fill="#141414"/>
<path d="M40.5977 1C43.6624 1 46 2.02661 46 4.94096C45.9632 8.30266 43.1314 8.94914 41.4486 9.06939C41.394 9.07842 41.3432 9.10185 41.302 9.13699C41.2607 9.17214 41.2307 9.21759 41.2154 9.26815C41.2001 9.31872 41.2 9.37235 41.2153 9.42294C41.2305 9.47353 41.2604 9.51903 41.3016 9.55425C42.3826 10.5097 43.4091 10.7813 45.0933 10.8304C45.2797 10.844 45.4533 10.9259 45.5773 11.0589C45.7013 11.1919 45.766 11.3654 45.7577 11.5428V11.9424C45.7577 12.5371 45.288 12.9987 44.7189 12.9767C38.9857 12.7065 39.7617 10.1322 38.4847 8.51859C38.0599 7.98072 37.2199 8.30525 37.2172 9.00216L37.209 11.8725C37.209 12.4957 36.7216 13 36.1198 13H35.0892C34.4901 13 34 12.4932 34 11.8674L34.0136 2.13522C34.0136 1.51072 34.4997 1.00517 35.1028 1.00517L40.5977 1ZM37.2253 3.58593V6.24167C37.2253 7.02909 37.7617 7.70789 38.5024 7.84883C39.0506 7.96783 39.6095 8.03667 40.1715 8.05441C41.4772 8.05441 42.3036 7.41569 42.4193 4.97586V4.88923C42.4193 4.87243 42.4193 4.85562 42.4193 4.83881C42.403 2.77007 40.4248 1.34781 38.5541 2.01886L38.2233 2.13652C37.9226 2.25463 37.6665 2.45617 37.4885 2.71478C37.3104 2.97339 37.2187 3.27701 37.2253 3.58593Z" fill="#141414"/>
<path d="M54.5252 13H52.1747C51.9944 13 51.9048 12.709 52.0267 12.5266C52.2852 12.1386 52.3957 11.6445 52.3957 11.0767C52.3957 8.91421 50.8009 5.70144 49.8242 3.57512C49.6929 3.28799 49.3687 3.41862 49.3719 3.75749L49.449 12.352C49.4526 12.4328 49.4434 12.5136 49.4218 12.5899C49.4001 12.6662 49.3665 12.7364 49.3229 12.7965C49.2793 12.8566 49.2266 12.9054 49.1677 12.9401C49.1088 12.9748 49.045 12.9947 48.9799 12.9987H47.4696C47.3391 12.991 47.2165 12.9194 47.1286 12.7996C47.0406 12.6798 46.9946 12.5216 47.0005 12.3598V1.64152C46.9946 1.47953 47.0406 1.3212 47.1285 1.20121C47.2164 1.08122 47.339 1.00934 47.4696 1.00129H49.5167C49.5532 1.00478 49.5884 1.01933 49.6193 1.04367C49.6501 1.06801 49.6757 1.10138 49.6937 1.14086C49.7117 1.18034 49.7216 1.22471 49.7226 1.27006C49.7235 1.31541 49.7155 1.36036 49.6992 1.40095C49.6232 1.58799 49.5806 1.79309 49.5741 2.00237C49.5764 2.16725 49.6051 2.32993 49.6585 2.48092C49.6616 2.48937 49.665 2.49758 49.6689 2.5055L51.9517 6.47748C52.1508 6.8254 52.5604 6.63138 52.5573 6.19034L52.5312 1.64669C52.5276 1.56595 52.5368 1.48511 52.5585 1.40882C52.5801 1.33254 52.6137 1.26232 52.6573 1.20221C52.7009 1.1421 52.7536 1.09329 52.8125 1.05858C52.8714 1.02388 52.9352 1.00397 53.0003 1H54.519C54.6493 1.00805 54.7718 1.07975 54.8597 1.19946C54.9476 1.31917 54.9937 1.47715 54.988 1.63893L54.9995 12.3585C55.0024 12.4393 54.9925 12.52 54.9702 12.596C54.9479 12.672 54.9138 12.7419 54.8697 12.8015C54.8257 12.8611 54.7726 12.9093 54.7134 12.9434C54.6543 12.9774 54.5904 12.9967 54.5252 13Z" fill="#141414"/>
<path d="M65.4261 2.34396L62.2209 0.869745C61.1989 0.400083 60.0545 0.962519 59.5423 2.22945C59.2878 2.8886 59.1117 3.58795 59.0193 4.30669C58.9881 4.52993 58.9677 4.75606 58.9449 4.98219C58.9137 5.29965 58.8501 5.70698 58.8993 6.01719C58.9677 6.45206 60.0161 6.42307 60.3136 6.43901C61.4939 6.50134 62.6995 6.20853 63.8487 5.82294C63.8949 5.81072 63.9429 5.81163 63.9888 5.8256C64.0347 5.83958 64.0772 5.86622 64.1132 5.90345C64.1491 5.94069 64.1774 5.98749 64.1958 6.04017C64.2142 6.09286 64.2223 6.15 64.2193 6.20708V7.76102C64.222 7.81694 64.2142 7.87286 64.1965 7.9246C64.1787 7.97635 64.1515 8.02258 64.1169 8.05981C64.0823 8.09705 64.0412 8.12432 63.9966 8.13961C63.952 8.15489 63.9051 8.15779 63.8595 8.14807C63.2993 7.98281 62.2785 7.77407 62.1585 7.74508C61.4088 7.56678 60.5835 7.20439 59.8206 7.39574C59.4751 7.48271 58.9809 7.77842 58.9089 8.28433C58.8621 8.60613 58.9089 9.00911 58.9161 9.33671C58.9233 9.66431 58.9221 9.98758 58.9257 10.3137C58.9353 11.3458 58.9477 12.3774 58.9629 13.4086C58.9669 13.4829 58.9586 13.5575 58.9383 13.6278C58.918 13.6982 58.8862 13.7629 58.8448 13.8181C58.8034 13.8732 58.7532 13.9178 58.6972 13.949C58.6413 13.9803 58.5807 13.9976 58.5191 14H56.445C56.3237 13.9929 56.2096 13.9278 56.128 13.819C56.0463 13.7103 56.0037 13.5668 56.0096 13.4202C56.0096 12.7824 56.0156 11.6807 56.0156 10.4514C56.0156 8.98736 56.0072 7.35514 56 6.06792C56 1.71485 58.0128 0 61.3656 0H65.564C65.6854 0.0071319 65.7994 0.0722233 65.8811 0.180958C65.9628 0.289693 66.0053 0.433167 65.9995 0.57983V1.80327C66.0043 2.19466 65.7092 2.47442 65.4261 2.34396Z" fill="#141414"/>
<path d="M69.9233 3.69742L69.9329 9.87955V11.6317C69.9329 11.9383 69.8305 12.8713 70.0365 13.0276C70.1237 13.0831 70.2217 13.1084 70.3199 13.1006C71.4273 13.121 72.2716 12.5399 73.2325 11.8872C73.5897 11.6492 73.9994 11.9938 73.9994 12.5253V13.2802C74.0029 13.3701 73.9918 13.46 73.9669 13.5446C73.9419 13.6293 73.9035 13.7071 73.8539 13.7734C73.8043 13.8398 73.7445 13.8935 73.6779 13.9314C73.6113 13.9693 73.5393 13.9906 73.4659 13.9942C72.6609 13.9839 71.8453 13.9693 71.0391 13.9693C70.4763 13.9693 69.9206 13.9796 69.372 14C68.91 14 68.0884 13.9927 67.5513 13.9869C67.4053 13.9759 67.2686 13.8952 67.1706 13.7619C67.0726 13.6287 67.0212 13.4536 67.0274 13.2743L67 0.717321C67 0.266145 67.306 -0.0769911 67.6335 0.0149963C68.5016 0.247155 69.9233 1.04876 69.9233 3.69742Z" fill="#141414"/>
<path d="M82.1034 0C86.1305 0 89 2.51597 89 7.06849C89 11.9439 86.2698 14 82.1413 14C78.5064 14 75 12.0893 75 7.08666C74.9973 2.61801 78.0521 0 82.1034 0ZM78.2563 7.09645C78.2563 11.4686 79.6207 13.6659 82.1291 13.6659C84.5348 13.6561 85.7383 11.5134 85.7383 7.09645C85.7383 2.76338 84.6295 0.310308 82.1034 0.310308C79.5274 0.408151 78.2563 2.9381 78.2563 7.09645Z" fill="#141414"/>
<path d="M93.0487 0.223232C94.2988 3.71526 95.4799 6.96666 96.8503 10.924C96.8776 11.0172 96.9315 11.0975 97.0034 11.1523C97.0753 11.2071 97.1612 11.2334 97.2477 11.2269C97.3342 11.2204 97.4164 11.1816 97.4813 11.1166C97.5463 11.0515 97.5903 10.9639 97.6066 10.8675C98.0928 8.79457 98.7262 6.11431 98.7262 3.89356C98.7343 3.25786 98.6658 2.62387 98.5227 2.00911C98.5188 1.99273 98.5136 1.97673 98.5074 1.96127C98.3167 1.42058 98.1312 0.985707 97.8471 0.629111C97.6641 0.397179 97.8011 0.00434413 98.0621 0.00434413H100.749C100.809 0.00602905 100.866 0.0279415 100.915 0.0672322C100.963 0.106523 101 0.16138 101.02 0.224683C102.251 3.68337 103.425 6.90578 104.782 10.8066C104.813 10.9072 104.871 10.9938 104.95 11.0528C105.028 11.1117 105.121 11.1399 105.214 11.1328C105.308 11.1256 105.397 11.0837 105.467 11.0135C105.538 10.9432 105.586 10.8486 105.604 10.7443C106.084 8.69311 106.698 6.06502 106.698 3.88051C106.698 2.5556 106.468 1.39014 105.843 0.624767C105.658 0.397184 105.797 0 106.058 0H109.7C109.752 0.00435372 109.803 0.0231467 109.848 0.0547484C109.892 0.0863501 109.93 0.129808 109.956 0.181356C109.983 0.232904 109.998 0.290981 110 0.350565C110.002 0.410149 109.991 0.469441 109.969 0.523295L105.656 12.246C105.584 12.4286 105.546 12.6259 105.544 12.8258C105.55 13.0491 105.597 13.2684 105.683 13.4695C105.706 13.5234 105.716 13.5826 105.714 13.6421C105.711 13.7016 105.696 13.7596 105.67 13.8109C105.643 13.8623 105.606 13.9056 105.561 13.937C105.516 13.9684 105.466 13.9871 105.413 13.9913H102.957C102.896 13.9902 102.838 13.9682 102.789 13.9283C102.74 13.8884 102.703 13.8325 102.683 13.7681L100.225 6.81011C100.205 6.74649 100.168 6.69134 100.12 6.65233C100.071 6.61331 100.013 6.59235 99.954 6.59235C99.8945 6.59235 99.8365 6.61331 99.788 6.65233C99.7395 6.69134 99.7029 6.74649 99.6833 6.81011L97.6821 12.2547C97.61 12.4373 97.5717 12.6346 97.5695 12.8345C97.5754 13.0578 97.6229 13.2771 97.7089 13.4782C97.731 13.5321 97.7412 13.5913 97.7386 13.6506C97.7361 13.71 97.7209 13.7678 97.6944 13.8191C97.6679 13.8704 97.6308 13.9136 97.5863 13.9451C97.5418 13.9766 97.4913 13.9954 97.4389 14H94.9809C94.9211 13.9986 94.8632 13.9768 94.8145 13.9375C94.7659 13.8982 94.7289 13.8432 94.7083 13.7797L90.0289 0.534894C90.0073 0.480876 89.9976 0.421755 90.0005 0.362562C90.0034 0.303369 90.0189 0.245852 90.0457 0.194902C90.0725 0.143952 90.1097 0.101079 90.1542 0.0699219C90.1987 0.0387646 90.2492 0.0202452 90.3014 0.0159432H92.7774C92.8356 0.0165836 92.8923 0.0365726 92.9405 0.0734255C92.9888 0.110278 93.0264 0.16237 93.0487 0.223232Z" fill="#141414"/>
</svg>
