<svg width="24" height="23" viewBox="0 0 32 29" fill="none" xmlns="http://www.w3.org/2000/svg">
<path d="M20 29H5.56752C4.83655 29.0005 4.11266 28.858 3.43719 28.5808C2.76173 28.3036 2.14794 27.8971 1.63091 27.3844C1.11387 26.8718 0.70371 26.2631 0.423872 25.5932C0.144034 24.9232 -1.49187e-07 24.2051 0 23.4799L0 0C1.53323 0.0392675 3.0372 0.425262 4.39728 1.12857C6.0443 1.97796 7.42466 3.25966 8.38787 4.83394C9.35107 6.40822 9.86015 8.21464 9.85958 10.0563V18.9395C9.85958 21.6077 10.9279 24.1666 12.8296 26.0533C14.7313 27.9401 17.3106 29 20 29Z" fill="#7B61FF"/>
<path d="M32 5.52001V29H31.5181C30.1707 29.0005 28.8365 28.7406 27.5916 28.2353C26.3467 27.7299 25.2156 26.989 24.2628 26.0549C23.31 25.1207 22.5543 24.0116 22.0389 22.791C21.5234 21.5704 21.2583 20.2621 21.2587 18.941V10.059C21.2587 8.73805 20.9933 7.43002 20.4778 6.2096C19.9622 4.98918 19.2066 3.88029 18.254 2.94622C17.3014 2.01215 16.1705 1.27121 14.9258 0.765697C13.6812 0.260184 12.3472 0 11 0L26.3711 0C27.1104 -5.91763e-09 27.8424 0.142784 28.5254 0.4202C29.2083 0.697615 29.8289 1.10423 30.3516 1.61682C30.8743 2.12941 31.2889 2.73793 31.5717 3.40765C31.8546 4.07736 32.0001 4.79515 32 5.52001Z" fill="#7B61FF"/>
</svg>
