<svg viewBox="104.71082969432314 0 354.9519650655022 330.05328000000003" xmlns="http://www.w3.org/2000/svg" data-name="Layer 1" id="Layer_1" style="max-height: 500px" width="354.9519650655022" height="330.05328000000003"><defs><style>.cls-1{fill:#141414;}.cls-2{fill:#d810e8;}</style></defs><path d="M17.69,391.44l0,23.58,0,10.86c0,2.94-.81,7.69,1.63,9.67a6.76,6.76,0,0,0,3.3,1.29c6,.94,11.11-2.77,16.25-5.61a2.41,2.41,0,0,1,3.47,2.35v6.09A2.52,2.52,0,0,1,40,442.3c-5.15-.06-10.37-.13-15.52-.13q-5.13,0-10.11.15c-3,0-8.66-.05-11.84-.08a2.51,2.51,0,0,1-2.36-2.62l-.17-64A2.47,2.47,0,0,1,2.75,373C7.73,373.87,17.69,377.4,17.69,391.44Z" class="cls-1"/><path d="M103.93,375.72v5.64a2.82,2.82,0,0,1-3.67,2.88l-7.34-2.79c-5.6-2.13-11-5.09-17.11-3.83a17.77,17.77,0,0,0-10,6c-1.09,1.33-1.55,3.52-2.09,5.19a52.67,52.67,0,0,0-1.66,6.8c-.46,2.57-2.17,8,.69,9.51a6.9,6.9,0,0,0,3.72.4c4.25-.34,8.92-.18,13-1.32,3.39-.94,6.86-1.53,10.29-2.32a2.85,2.85,0,0,1,3.36,3c0,1.74,0,3.47,0,5.2a2.86,2.86,0,0,1-3.25,3c-2-.42-4.16-.61-6.15-1l-10.21-1.76c-2.34-.4-4.77-.8-7.07-.12a7.33,7.33,0,0,0-1.17.47A6.33,6.33,0,0,0,62.26,414c-.62,1.69-.11,3.42.23,5.12.72,3.65,1.55,9.05,3.87,11.88a18.58,18.58,0,0,0,9,5.94c6.46,1.89,11.78-.88,17.71-3.27l7.1-2.87a2.81,2.81,0,0,1,3.72,2.86v5.58a2.92,2.92,0,0,1-2.79,3.05c-5-.05-10-.08-15-.08-3.46,0-6.91,0-10.28.1-10.47,0-31.77-1.1-32.13-35.77,0-24.31,12.29-33.92,32.27-33.92,7.38,0,15.74,0,25.12.05A2.91,2.91,0,0,1,103.93,375.72Z" class="cls-1"/><path d="M149.3,372.63l27.9,69.59H159.54c-6-14.91-8.83-18.36-19.29-18.36-1.73,0-3.65.09-5.83.25a7.23,7.23,0,0,0-6.41,6.36c-.64,4.14-1.23,8-1.83,11.75H118c-3,0-6.36.42-9.35,0a17.23,17.23,0,0,1,1.64-3.75c.58-1.29,1.14-2.58,1.69-3.89,6.44-15.34,10.84-31.57,15.21-47.72l.92-3.4,1.76-6.53c.36-1.32.52-3.38,1.79-4,1.65-.86,4.8-.22,6.59-.22Zm-19,46.47a2.84,2.84,0,0,0,1.48,1.17,6.16,6.16,0,0,0,2.92.33c4.59-.39,8-2.94,10.23-7.29,1.83-3.56-.66-9-2-12.5s-2.77-7.08-4.22-10.6a2.58,2.58,0,0,0-5,.74q-1.22,8.42-2.44,16.82-.5,3.42-1,6.85C130.12,416.31,129.63,417.93,130.33,419.1Z" class="cls-1"/><path d="M218.11,372.63c16.88,0,29.76,5.95,29.76,22.86-.2,19.48-15.8,23.23-25.07,24a1.62,1.62,0,0,0-.81,2.8c6,5.55,11.61,7.13,20.89,7.41a4,4,0,0,1,3.66,4.13v2.32c0,3.45-2.59,6.13-5.73,6-31.59-1.56-27.31-16.47-34.35-25.86-2.34-3.12-7-1.24-7,2.8l-.05,16.65c0,3.62-2.68,6.55-6,6.55h-5.67c-3.31,0-6-3-6-6.58l.08-56.45c0-3.63,2.67-6.56,6-6.56Zm-18.58,15,0,15.41c0,4.56,3,8.5,7,9.32a48.58,48.58,0,0,0,9.19,1.19c7.19,0,11.74-3.7,12.38-17.86v-.79c-.09-12-11-20.25-21.3-16.36l-1.82.69A8.87,8.87,0,0,0,199.53,387.63Z" class="cls-1"/><path d="M305.06,442.22H288.15a1.66,1.66,0,0,1-1.07-2.75,12.78,12.78,0,0,0,2.66-8.41c0-12.54-11.48-31.17-18.5-43.51a1.75,1.75,0,0,0-3.26,1.06l.56,49.85a3.57,3.57,0,0,1-3.38,3.76H254.3a3.55,3.55,0,0,1-3.38-3.71V376.34a3.55,3.55,0,0,1,3.38-3.71H269a1.61,1.61,0,0,1,1.31,2.32,8.41,8.41,0,0,0-.9,3.48,7.34,7.34,0,0,0,.61,2.78.39.39,0,0,0,.08.14l16.38,23c1.43,2,4.37.89,4.35-1.67l-.18-26.35a3.55,3.55,0,0,1,3.37-3.74H305a3.57,3.57,0,0,1,3.38,3.71l.08,62.16A3.56,3.56,0,0,1,305.06,442.22Z" class="cls-1"/><path d="M369.72,384.22l-19.27-7.33c-6.15-2.34-13,.46-16.11,6.76A38,38,0,0,0,331.2,394c-.19,1.11-.32,2.24-.45,3.36a18.73,18.73,0,0,0-.28,5.15c.42,2.15,6.72,2,8.51,2.1,7.09.31,14.34-1.15,21.25-3.07a1.84,1.84,0,0,1,2.23,1.91v7.74a1.84,1.84,0,0,1-2.19,1.92c-3.37-.82-9.51-1.86-10.23-2-4.51-.89-9.47-2.69-14.05-1.74-2.09.43-5.06,1.91-5.49,4.42a30.6,30.6,0,0,0,.05,5.24c0,1.62,0,3.24.05,4.86q.09,7.69.23,15.4a2.77,2.77,0,0,1-2.62,2.94H315.72a2.75,2.75,0,0,1-2.62-2.89c0-3.17,0-8.64,0-14.77,0-7.25-.05-15.41-.09-21.81,0-21.67,12.1-30.22,32.26-30.22h25.28a2.76,2.76,0,0,1,2.62,2.88v6.08A2.68,2.68,0,0,1,369.72,384.22Z" class="cls-1"/><path d="M395.22,391.44l.06,30.54,0,8.64c0,1.51-.62,6.12.63,6.89a3.3,3.3,0,0,0,1.72.36c6.71.11,11.82-2.77,17.64-6,2.13-1.18,4.64.53,4.64,3.15v3.73a3.37,3.37,0,0,1-3.23,3.53c-4.87-.05-9.81-.12-14.7-.12q-5.12,0-10.1.15c-2.8,0-7.78,0-11-.07a3.39,3.39,0,0,1-3.18-3.51l-.16-62.07a3.3,3.3,0,0,1,3.84-3.47C386.57,374.4,395.22,378.36,395.22,391.44Z" class="cls-1"/><path d="M459.21,371.38c21.48,0,36.77,13,36.77,36.47,0,25.16-14.56,35.77-36.59,35.77-19.39,0-38.09-9.86-38.09-35.67C421.3,384.89,437.59,371.38,459.21,371.38ZM438.68,408c0,22.56,7.29,33.87,20.66,33.92,12.84-.05,19.25-11.11,19.25-33.92,0-22.36-5.91-35-19.38-35C445.46,373.48,438.68,386.54,438.68,408Z" class="cls-1"/><path d="M514.08,373.67c7,17.38,13.69,33.56,21.43,53.25a2.21,2.21,0,0,0,4.26-.28c2.74-10.31,6.31-23.65,6.31-34.7a34.54,34.54,0,0,0-1.15-9.38,1.69,1.69,0,0,0-.08-.24,21.54,21.54,0,0,0-3.72-6.63,1.86,1.86,0,0,1,1.21-3.11h15.17a1.68,1.68,0,0,1,1.53,1.1c6.94,17.21,13.55,33.24,21.2,52.68a2.41,2.41,0,0,0,4.64-.32c2.7-10.21,6.16-23.28,6.16-34.15,0-6.59-1.3-12.4-4.81-16.2a1.86,1.86,0,0,1,1.2-3.11H608a1.83,1.83,0,0,1,1.52,2.6l-24.31,58.33a7.43,7.43,0,0,0-.63,2.86,8,8,0,0,0,.78,3.2,1.83,1.83,0,0,1-1.52,2.6H569.93a1.66,1.66,0,0,1-1.53-1.1l-13.86-34.62a1.61,1.61,0,0,0-3,0l-11.28,27.09a7.46,7.46,0,0,0-.64,2.86,8,8,0,0,0,.79,3.2,1.83,1.83,0,0,1-1.52,2.6H525a1.68,1.68,0,0,1-1.54-1.1l-26.37-65.91a1.83,1.83,0,0,1,1.53-2.58h14A1.68,1.68,0,0,1,514.08,373.67Z" class="cls-1"/><path d="M438.91,59.86V314.47h-5.13A109,109,0,0,1,324.7,205.39V109.08A109.08,109.08,0,0,0,215.62,0H379.06A59.86,59.86,0,0,1,438.91,59.86Z" class="cls-2"/><path d="M339.59,314.47H184.3a59.85,59.85,0,0,1-59.85-59.85V.05a109,109,0,0,1,106.05,109v96.31A109.09,109.09,0,0,0,339.59,314.47Z" class="cls-2"/></svg>