<svg width="15" height="15" viewBox="0 0 15 15" fill="none" xmlns="http://www.w3.org/2000/svg">
<path d="M7.01819 0.863252C7.04741 0.804226 7.09254 0.754541 7.14849 0.719802C7.20445 0.685064 7.269 0.666656 7.33486 0.666656C7.40072 0.666656 7.46527 0.685064 7.52122 0.719802C7.57718 0.754541 7.62231 0.804226 7.65153 0.863252L9.19153 3.98259C9.29298 4.1879 9.44273 4.36552 9.62794 4.50022C9.81315 4.63492 10.0283 4.72266 10.2549 4.75592L13.6989 5.25992C13.7641 5.26937 13.8254 5.2969 13.8759 5.33939C13.9263 5.38187 13.9638 5.43762 13.9842 5.50032C14.0046 5.56303 14.007 5.63019 13.9912 5.69421C13.9755 5.75823 13.9421 5.81655 13.8949 5.86259L11.4042 8.28792C11.2399 8.44799 11.117 8.64557 11.0461 8.86367C10.9751 9.08177 10.9582 9.31385 10.9969 9.53992L11.5849 12.9666C11.5964 13.0318 11.5893 13.099 11.5645 13.1604C11.5397 13.2218 11.4981 13.275 11.4446 13.3139C11.391 13.3528 11.3275 13.3759 11.2614 13.3805C11.1954 13.3851 11.1293 13.371 11.0709 13.3399L7.99219 11.7213C7.78934 11.6147 7.56365 11.5591 7.33453 11.5591C7.10541 11.5591 6.87971 11.6147 6.67686 11.7213L3.59886 13.3399C3.54041 13.3709 3.47446 13.3848 3.40849 13.3801C3.34253 13.3754 3.2792 13.3523 3.22572 13.3134C3.17224 13.2745 3.13075 13.2214 3.10596 13.1601C3.08118 13.0988 3.0741 13.0317 3.08553 12.9666L3.67286 9.54059C3.71166 9.31441 3.69485 9.08218 3.62388 8.86395C3.55292 8.64572 3.42993 8.44802 3.26553 8.28792L0.774859 5.86325C0.727255 5.81727 0.693521 5.75885 0.6775 5.69464C0.66148 5.63042 0.663817 5.563 0.684245 5.50005C0.704672 5.4371 0.74237 5.38115 0.793043 5.33857C0.843716 5.296 0.905328 5.26852 0.970859 5.25925L4.41419 4.75592C4.64103 4.72292 4.85645 4.63529 5.04191 4.50058C5.22738 4.36586 5.37733 4.1881 5.47886 3.98259L7.01819 0.863252Z" fill="#64748B" stroke="#64748B" stroke-width="1.33333" stroke-linecap="round" stroke-linejoin="round"/>
</svg>
